# xmcd
#
# Track frame offsets: 
#        150
#        13667
#        31365
#        46862
#        55947
#        66737
#        77532
#        93922
#        110727
#        125545
#        134997
#        149197
#
# Disc length: 2171 seconds
#
# Revision: 0
# Processed by: cddbd v1.5.2PL0 Copyright (c) Steve Scherf et al.
# Submitted via: ExactAudioCopy v0.99pb5
#
DISCID=b808790c
DTITLE=Smoky Mountain Artisans - Christmas In The Smokies
DYEAR=1992
DGENRE=Bluegrass
TTITLE0=Go Tell It On The Mountain - Angels We Have Heard On High
TTITLE1=While Shepherds Watched Their Flocks - Hark The Herald Angels 
TTITLE1=Sing
TTITLE2=Cradle Hymn - O Come All Ye Faithful
TTITLE3=Greensleeves (What Child Is This)
TTITLE4=A Smoky Mountain Christmas Song
TTITLE5=It Came Upon A Midnight Clear
TTITLE6=The First Noel - Joy To The World
TTITLE7=Away In A Manger - Silent Night
TTITLE8=God Rest Ye Merry Gentlemen
TTITLE9=Evergreen Morning
TTITLE10=Christmas In Gatlinburg
TTITLE11=We Wish You A Merry Christmas
EXTD=
EXTT0=
EXTT1=
EXTT2=
EXTT3=
EXTT4=
EXTT5=
EXTT6=
EXTT7=
EXTT8=
EXTT9=
EXTT10=
EXTT11=
PLAYORDER=
